<mxfile host="app.diagrams.net" agent="Mozilla/5.0 (Macintosh; Intel Mac OS X 10_15_7) AppleWebKit/605.1.15 (KHTML, like Gecko) Version/18.6 Safari/605.1.15" version="28.2.3">
  <diagram id="Ht1M8jgEwFfnCIfOTk4-" name="Page-1">
    <mxGraphModel dx="3682" dy="1408" grid="1" gridSize="10" guides="1" tooltips="1" connect="1" arrows="1" fold="1" page="1" pageScale="1" pageWidth="1169" pageHeight="827" math="0" shadow="0">
      <root>
        <mxCell id="0" />
        <mxCell id="1" parent="0" />
        <mxCell id="gGwlAg2NpKpwANiee2Lp-52" value="" style="rounded=0;whiteSpace=wrap;html=1;strokeColor=light-dark(#000000,#000000);" parent="1" vertex="1">
          <mxGeometry x="-1100" y="40" width="2560" height="1080" as="geometry" />
        </mxCell>
        <mxCell id="gGwlAg2NpKpwANiee2Lp-3" value="AWS Cloud" style="points=[[0,0],[0.25,0],[0.5,0],[0.75,0],[1,0],[1,0.25],[1,0.5],[1,0.75],[1,1],[0.75,1],[0.5,1],[0.25,1],[0,1],[0,0.75],[0,0.5],[0,0.25]];outlineConnect=0;gradientColor=none;html=1;whiteSpace=wrap;fontSize=12;fontStyle=0;container=1;pointerEvents=0;collapsible=0;recursiveResize=0;shape=mxgraph.aws4.group;grIcon=mxgraph.aws4.group_aws_cloud_alt;strokeColor=#232F3E;fillColor=none;verticalAlign=top;align=left;spacingLeft=30;fontColor=#232F3E;dashed=0;" parent="1" vertex="1">
          <mxGeometry x="-370" y="160" width="1190" height="830" as="geometry" />
        </mxCell>
        <mxCell id="gGwlAg2NpKpwANiee2Lp-4" value="Region" style="points=[[0,0],[0.25,0],[0.5,0],[0.75,0],[1,0],[1,0.25],[1,0.5],[1,0.75],[1,1],[0.75,1],[0.5,1],[0.25,1],[0,1],[0,0.75],[0,0.5],[0,0.25]];outlineConnect=0;gradientColor=none;html=1;whiteSpace=wrap;fontSize=12;fontStyle=0;container=1;pointerEvents=0;collapsible=0;recursiveResize=0;shape=mxgraph.aws4.group;grIcon=mxgraph.aws4.group_region;strokeColor=#00A4A6;fillColor=none;verticalAlign=top;align=left;spacingLeft=30;fontColor=#147EBA;dashed=1;" parent="gGwlAg2NpKpwANiee2Lp-3" vertex="1">
          <mxGeometry x="164" y="63" width="960" height="700" as="geometry" />
        </mxCell>
        <mxCell id="gGwlAg2NpKpwANiee2Lp-8" value="VPC" style="points=[[0,0],[0.25,0],[0.5,0],[0.75,0],[1,0],[1,0.25],[1,0.5],[1,0.75],[1,1],[0.75,1],[0.5,1],[0.25,1],[0,1],[0,0.75],[0,0.5],[0,0.25]];outlineConnect=0;gradientColor=none;html=1;whiteSpace=wrap;fontSize=12;fontStyle=0;container=1;pointerEvents=0;collapsible=0;recursiveResize=0;shape=mxgraph.aws4.group;grIcon=mxgraph.aws4.group_vpc2;strokeColor=#8C4FFF;fillColor=none;verticalAlign=top;align=left;spacingLeft=30;fontColor=#AAB7B8;dashed=0;" parent="gGwlAg2NpKpwANiee2Lp-4" vertex="1">
          <mxGeometry x="130" y="40" width="800" height="640" as="geometry" />
        </mxCell>
        <mxCell id="gGwlAg2NpKpwANiee2Lp-9" value="" style="sketch=0;outlineConnect=0;fontColor=#232F3E;gradientColor=none;fillColor=#8C4FFF;strokeColor=none;dashed=0;verticalLabelPosition=bottom;verticalAlign=top;align=center;html=1;fontSize=12;fontStyle=0;aspect=fixed;pointerEvents=1;shape=mxgraph.aws4.internet_gateway;" parent="gGwlAg2NpKpwANiee2Lp-8" vertex="1">
          <mxGeometry x="-33" y="80" width="70" height="70" as="geometry" />
        </mxCell>
        <mxCell id="gGwlAg2NpKpwANiee2Lp-10" value="" style="sketch=0;outlineConnect=0;fontColor=#232F3E;gradientColor=none;fillColor=#8C4FFF;strokeColor=none;dashed=0;verticalLabelPosition=bottom;verticalAlign=top;align=center;html=1;fontSize=12;fontStyle=0;aspect=fixed;pointerEvents=1;shape=mxgraph.aws4.customer_gateway;" parent="gGwlAg2NpKpwANiee2Lp-8" vertex="1">
          <mxGeometry x="63" y="81" width="70" height="70" as="geometry" />
        </mxCell>
        <mxCell id="gGwlAg2NpKpwANiee2Lp-11" value="" style="endArrow=classic;startArrow=classic;html=1;rounded=0;" parent="gGwlAg2NpKpwANiee2Lp-8" source="gGwlAg2NpKpwANiee2Lp-9" target="gGwlAg2NpKpwANiee2Lp-10" edge="1">
          <mxGeometry width="50" height="50" relative="1" as="geometry">
            <mxPoint x="370" y="354" as="sourcePoint" />
            <mxPoint x="420" y="304" as="targetPoint" />
          </mxGeometry>
        </mxCell>
        <mxCell id="gGwlAg2NpKpwANiee2Lp-12" value="Availability Zone 1" style="fillColor=none;strokeColor=#5A6C86;dashed=1;verticalAlign=top;fontStyle=0;fontColor=#5A6C86;whiteSpace=wrap;html=1;" parent="gGwlAg2NpKpwANiee2Lp-8" vertex="1">
          <mxGeometry x="142" y="27" width="630" height="290" as="geometry" />
        </mxCell>
        <mxCell id="gGwlAg2NpKpwANiee2Lp-6" value="Public subnet" style="points=[[0,0],[0.25,0],[0.5,0],[0.75,0],[1,0],[1,0.25],[1,0.5],[1,0.75],[1,1],[0.75,1],[0.5,1],[0.25,1],[0,1],[0,0.75],[0,0.5],[0,0.25]];outlineConnect=0;gradientColor=none;html=1;whiteSpace=wrap;fontSize=12;fontStyle=0;container=1;pointerEvents=0;collapsible=0;recursiveResize=0;shape=mxgraph.aws4.group;grIcon=mxgraph.aws4.group_security_group;grStroke=0;strokeColor=#7AA116;fillColor=#F2F6E8;verticalAlign=top;align=left;spacingLeft=30;fontColor=#248814;dashed=0;" parent="gGwlAg2NpKpwANiee2Lp-8" vertex="1">
          <mxGeometry x="189" y="55" width="260" height="245" as="geometry" />
        </mxCell>
        <mxCell id="gGwlAg2NpKpwANiee2Lp-15" value="Security group" style="fillColor=none;strokeColor=#DD3522;verticalAlign=top;fontStyle=1;fontColor=#DD3522;whiteSpace=wrap;html=1;" parent="gGwlAg2NpKpwANiee2Lp-6" vertex="1">
          <mxGeometry x="13" y="40" width="227" height="190" as="geometry" />
        </mxCell>
        <mxCell id="gGwlAg2NpKpwANiee2Lp-13" value="ALB" style="sketch=0;outlineConnect=0;fontColor=#232F3E;gradientColor=none;fillColor=#8C4FFF;strokeColor=none;dashed=0;verticalLabelPosition=bottom;verticalAlign=top;align=center;html=1;fontSize=12;fontStyle=0;aspect=fixed;pointerEvents=1;shape=mxgraph.aws4.application_load_balancer;" parent="gGwlAg2NpKpwANiee2Lp-6" vertex="1">
          <mxGeometry x="110" y="121" width="70" height="70" as="geometry" />
        </mxCell>
        <mxCell id="gGwlAg2NpKpwANiee2Lp-28" style="edgeStyle=orthogonalEdgeStyle;rounded=0;orthogonalLoop=1;jettySize=auto;html=1;exitX=0.5;exitY=1;exitDx=0;exitDy=0;" parent="gGwlAg2NpKpwANiee2Lp-6" source="gGwlAg2NpKpwANiee2Lp-15" target="gGwlAg2NpKpwANiee2Lp-15" edge="1">
          <mxGeometry relative="1" as="geometry" />
        </mxCell>
        <mxCell id="gGwlAg2NpKpwANiee2Lp-7" value="Private subnet" style="points=[[0,0],[0.25,0],[0.5,0],[0.75,0],[1,0],[1,0.25],[1,0.5],[1,0.75],[1,1],[0.75,1],[0.5,1],[0.25,1],[0,1],[0,0.75],[0,0.5],[0,0.25]];outlineConnect=0;gradientColor=none;html=1;whiteSpace=wrap;fontSize=12;fontStyle=0;container=1;pointerEvents=0;collapsible=0;recursiveResize=0;shape=mxgraph.aws4.group;grIcon=mxgraph.aws4.group_security_group;grStroke=0;strokeColor=#00A4A6;fillColor=#E6F6F7;verticalAlign=top;align=left;spacingLeft=30;fontColor=#147EBA;dashed=0;" parent="gGwlAg2NpKpwANiee2Lp-8" vertex="1">
          <mxGeometry x="485" y="55" width="260" height="245" as="geometry" />
        </mxCell>
        <mxCell id="gGwlAg2NpKpwANiee2Lp-16" value="Security group" style="fillColor=none;strokeColor=#DD3522;verticalAlign=top;fontStyle=1;fontColor=#DD3522;whiteSpace=wrap;html=1;" parent="gGwlAg2NpKpwANiee2Lp-7" vertex="1">
          <mxGeometry x="16.5" y="35" width="227" height="190" as="geometry" />
        </mxCell>
        <mxCell id="gGwlAg2NpKpwANiee2Lp-24" value="t2 Micro" style="sketch=0;outlineConnect=0;fontColor=#232F3E;gradientColor=none;fillColor=#ED7100;strokeColor=none;dashed=0;verticalLabelPosition=bottom;verticalAlign=top;align=center;html=1;fontSize=12;fontStyle=0;aspect=fixed;pointerEvents=1;shape=mxgraph.aws4.instance2;" parent="gGwlAg2NpKpwANiee2Lp-7" vertex="1">
          <mxGeometry x="100.5" y="129" width="53" height="53" as="geometry" />
        </mxCell>
        <mxCell id="gGwlAg2NpKpwANiee2Lp-23" value="Auto Scaling group" style="points=[[0,0],[0.25,0],[0.5,0],[0.75,0],[1,0],[1,0.25],[1,0.5],[1,0.75],[1,1],[0.75,1],[0.5,1],[0.25,1],[0,1],[0,0.75],[0,0.5],[0,0.25]];outlineConnect=0;gradientColor=none;html=1;whiteSpace=wrap;fontSize=12;fontStyle=0;container=1;pointerEvents=0;collapsible=0;recursiveResize=0;shape=mxgraph.aws4.groupCenter;grIcon=mxgraph.aws4.group_auto_scaling_group;grStroke=1;strokeColor=#D86613;fillColor=none;verticalAlign=top;align=center;fontColor=#D86613;dashed=1;spacingTop=25;" parent="gGwlAg2NpKpwANiee2Lp-7" vertex="1">
          <mxGeometry x="45" y="68" width="170" height="140" as="geometry" />
        </mxCell>
        <mxCell id="gGwlAg2NpKpwANiee2Lp-20" value="" style="edgeStyle=orthogonalEdgeStyle;html=1;endArrow=block;elbow=vertical;startArrow=block;startFill=1;endFill=1;strokeColor=#545B64;rounded=0;" parent="gGwlAg2NpKpwANiee2Lp-8" source="gGwlAg2NpKpwANiee2Lp-9" target="gGwlAg2NpKpwANiee2Lp-13" edge="1">
          <mxGeometry width="100" relative="1" as="geometry">
            <mxPoint x="410" y="360" as="sourcePoint" />
            <mxPoint x="510" y="360" as="targetPoint" />
            <Array as="points">
              <mxPoint x="13" y="209" />
            </Array>
          </mxGeometry>
        </mxCell>
        <mxCell id="gGwlAg2NpKpwANiee2Lp-22" value="" style="endArrow=classic;startArrow=classic;html=1;rounded=0;" parent="gGwlAg2NpKpwANiee2Lp-8" source="gGwlAg2NpKpwANiee2Lp-13" target="gGwlAg2NpKpwANiee2Lp-24" edge="1">
          <mxGeometry width="50" height="50" relative="1" as="geometry">
            <mxPoint x="438" y="350" as="sourcePoint" />
            <mxPoint x="588.5" y="255.5" as="targetPoint" />
          </mxGeometry>
        </mxCell>
        <mxCell id="gGwlAg2NpKpwANiee2Lp-40" value="Availability Zone 2" style="fillColor=none;strokeColor=#5A6C86;dashed=1;verticalAlign=top;fontStyle=0;fontColor=#5A6C86;whiteSpace=wrap;html=1;" parent="gGwlAg2NpKpwANiee2Lp-8" vertex="1">
          <mxGeometry x="142" y="327" width="630" height="290" as="geometry" />
        </mxCell>
        <mxCell id="gGwlAg2NpKpwANiee2Lp-41" value="Public subnet" style="points=[[0,0],[0.25,0],[0.5,0],[0.75,0],[1,0],[1,0.25],[1,0.5],[1,0.75],[1,1],[0.75,1],[0.5,1],[0.25,1],[0,1],[0,0.75],[0,0.5],[0,0.25]];outlineConnect=0;gradientColor=none;html=1;whiteSpace=wrap;fontSize=12;fontStyle=0;container=1;pointerEvents=0;collapsible=0;recursiveResize=0;shape=mxgraph.aws4.group;grIcon=mxgraph.aws4.group_security_group;grStroke=0;strokeColor=#7AA116;fillColor=#F2F6E8;verticalAlign=top;align=left;spacingLeft=30;fontColor=#248814;dashed=0;" parent="gGwlAg2NpKpwANiee2Lp-8" vertex="1">
          <mxGeometry x="189" y="355" width="260" height="245" as="geometry" />
        </mxCell>
        <mxCell id="gGwlAg2NpKpwANiee2Lp-42" value="Security group" style="fillColor=none;strokeColor=#DD3522;verticalAlign=top;fontStyle=1;fontColor=#DD3522;whiteSpace=wrap;html=1;" parent="gGwlAg2NpKpwANiee2Lp-41" vertex="1">
          <mxGeometry x="13" y="40" width="227" height="190" as="geometry" />
        </mxCell>
        <mxCell id="gGwlAg2NpKpwANiee2Lp-43" value="ALB" style="sketch=0;outlineConnect=0;fontColor=#232F3E;gradientColor=none;fillColor=#8C4FFF;strokeColor=none;dashed=0;verticalLabelPosition=bottom;verticalAlign=top;align=center;html=1;fontSize=12;fontStyle=0;aspect=fixed;pointerEvents=1;shape=mxgraph.aws4.application_load_balancer;" parent="gGwlAg2NpKpwANiee2Lp-41" vertex="1">
          <mxGeometry x="110" y="120" width="70" height="70" as="geometry" />
        </mxCell>
        <mxCell id="gGwlAg2NpKpwANiee2Lp-44" style="edgeStyle=orthogonalEdgeStyle;rounded=0;orthogonalLoop=1;jettySize=auto;html=1;exitX=0.5;exitY=1;exitDx=0;exitDy=0;" parent="gGwlAg2NpKpwANiee2Lp-41" source="gGwlAg2NpKpwANiee2Lp-42" target="gGwlAg2NpKpwANiee2Lp-42" edge="1">
          <mxGeometry relative="1" as="geometry" />
        </mxCell>
        <mxCell id="gGwlAg2NpKpwANiee2Lp-45" value="Private subnet" style="points=[[0,0],[0.25,0],[0.5,0],[0.75,0],[1,0],[1,0.25],[1,0.5],[1,0.75],[1,1],[0.75,1],[0.5,1],[0.25,1],[0,1],[0,0.75],[0,0.5],[0,0.25]];outlineConnect=0;gradientColor=none;html=1;whiteSpace=wrap;fontSize=12;fontStyle=0;container=1;pointerEvents=0;collapsible=0;recursiveResize=0;shape=mxgraph.aws4.group;grIcon=mxgraph.aws4.group_security_group;grStroke=0;strokeColor=#00A4A6;fillColor=#E6F6F7;verticalAlign=top;align=left;spacingLeft=30;fontColor=#147EBA;dashed=0;" parent="gGwlAg2NpKpwANiee2Lp-8" vertex="1">
          <mxGeometry x="485" y="355" width="260" height="245" as="geometry" />
        </mxCell>
        <mxCell id="gGwlAg2NpKpwANiee2Lp-46" value="Security group" style="fillColor=none;strokeColor=#DD3522;verticalAlign=top;fontStyle=1;fontColor=#DD3522;whiteSpace=wrap;html=1;" parent="gGwlAg2NpKpwANiee2Lp-45" vertex="1">
          <mxGeometry x="16.5" y="35" width="227" height="190" as="geometry" />
        </mxCell>
        <mxCell id="gGwlAg2NpKpwANiee2Lp-47" value="t2 Micro" style="sketch=0;outlineConnect=0;fontColor=#232F3E;gradientColor=none;fillColor=#ED7100;strokeColor=none;dashed=0;verticalLabelPosition=bottom;verticalAlign=top;align=center;html=1;fontSize=12;fontStyle=0;aspect=fixed;pointerEvents=1;shape=mxgraph.aws4.instance2;" parent="gGwlAg2NpKpwANiee2Lp-45" vertex="1">
          <mxGeometry x="100.5" y="129" width="53" height="53" as="geometry" />
        </mxCell>
        <mxCell id="gGwlAg2NpKpwANiee2Lp-48" value="" style="endArrow=classic;startArrow=classic;html=1;rounded=0;" parent="gGwlAg2NpKpwANiee2Lp-8" source="gGwlAg2NpKpwANiee2Lp-43" target="gGwlAg2NpKpwANiee2Lp-47" edge="1">
          <mxGeometry width="50" height="50" relative="1" as="geometry">
            <mxPoint x="438" y="650" as="sourcePoint" />
            <mxPoint x="588.5" y="555.5" as="targetPoint" />
          </mxGeometry>
        </mxCell>
        <mxCell id="gGwlAg2NpKpwANiee2Lp-49" value="Auto Scaling group" style="points=[[0,0],[0.25,0],[0.5,0],[0.75,0],[1,0],[1,0.25],[1,0.5],[1,0.75],[1,1],[0.75,1],[0.5,1],[0.25,1],[0,1],[0,0.75],[0,0.5],[0,0.25]];outlineConnect=0;gradientColor=none;html=1;whiteSpace=wrap;fontSize=12;fontStyle=0;container=1;pointerEvents=0;collapsible=0;recursiveResize=0;shape=mxgraph.aws4.groupCenter;grIcon=mxgraph.aws4.group_auto_scaling_group;grStroke=1;strokeColor=#D86613;fillColor=none;verticalAlign=top;align=center;fontColor=#D86613;dashed=1;spacingTop=25;" parent="gGwlAg2NpKpwANiee2Lp-8" vertex="1">
          <mxGeometry x="528" y="423" width="170" height="140" as="geometry" />
        </mxCell>
        <mxCell id="gGwlAg2NpKpwANiee2Lp-50" value="" style="edgeStyle=orthogonalEdgeStyle;html=1;endArrow=block;elbow=vertical;startArrow=block;startFill=1;endFill=1;strokeColor=#545B64;rounded=0;" parent="gGwlAg2NpKpwANiee2Lp-8" source="gGwlAg2NpKpwANiee2Lp-9" target="gGwlAg2NpKpwANiee2Lp-43" edge="1">
          <mxGeometry width="100" relative="1" as="geometry">
            <mxPoint x="300" y="370" as="sourcePoint" />
            <mxPoint x="400" y="370" as="targetPoint" />
            <Array as="points">
              <mxPoint x="13" y="509" />
            </Array>
          </mxGeometry>
        </mxCell>
        <mxCell id="ZI70vxyPbpq8DwKy1oIE-2" value="" style="sketch=0;points=[[0,0,0],[0.25,0,0],[0.5,0,0],[0.75,0,0],[1,0,0],[0,1,0],[0.25,1,0],[0.5,1,0],[0.75,1,0],[1,1,0],[0,0.25,0],[0,0.5,0],[0,0.75,0],[1,0.25,0],[1,0.5,0],[1,0.75,0]];outlineConnect=0;fontColor=#232F3E;fillColor=#7AA116;strokeColor=#ffffff;dashed=0;verticalLabelPosition=bottom;verticalAlign=top;align=center;html=1;fontSize=12;fontStyle=0;aspect=fixed;shape=mxgraph.aws4.resourceIcon;resIcon=mxgraph.aws4.s3;" vertex="1" parent="gGwlAg2NpKpwANiee2Lp-4">
          <mxGeometry x="36" y="301" width="70" height="70" as="geometry" />
        </mxCell>
        <mxCell id="gGwlAg2NpKpwANiee2Lp-14" value="" style="sketch=0;points=[[0,0,0],[0.25,0,0],[0.5,0,0],[0.75,0,0],[1,0,0],[0,1,0],[0.25,1,0],[0.5,1,0],[0.75,1,0],[1,1,0],[0,0.25,0],[0,0.5,0],[0,0.75,0],[1,0.25,0],[1,0.5,0],[1,0.75,0]];outlineConnect=0;fontColor=#232F3E;fillColor=#8C4FFF;strokeColor=#ffffff;dashed=0;verticalLabelPosition=bottom;verticalAlign=top;align=center;html=1;fontSize=12;fontStyle=0;aspect=fixed;shape=mxgraph.aws4.resourceIcon;resIcon=mxgraph.aws4.route_53;" parent="gGwlAg2NpKpwANiee2Lp-3" vertex="1">
          <mxGeometry x="60" y="562" width="70" height="70" as="geometry" />
        </mxCell>
        <mxCell id="od6eeCdcjbZJOe7FV_tS-1" value="" style="sketch=0;points=[[0,0,0],[0.25,0,0],[0.5,0,0],[0.75,0,0],[1,0,0],[0,1,0],[0.25,1,0],[0.5,1,0],[0.75,1,0],[1,1,0],[0,0.25,0],[0,0.5,0],[0,0.75,0],[1,0.25,0],[1,0.5,0],[1,0.75,0]];outlineConnect=0;fontColor=#232F3E;fillColor=#8C4FFF;strokeColor=#ffffff;dashed=0;verticalLabelPosition=bottom;verticalAlign=top;align=center;html=1;fontSize=12;fontStyle=0;aspect=fixed;shape=mxgraph.aws4.resourceIcon;resIcon=mxgraph.aws4.cloudfront;" parent="gGwlAg2NpKpwANiee2Lp-3" vertex="1">
          <mxGeometry x="60" y="364.5" width="70" height="70" as="geometry" />
        </mxCell>
        <mxCell id="gGwlAg2NpKpwANiee2Lp-56" value="" style="endArrow=classic;startArrow=classic;html=1;rounded=0;exitX=1;exitY=0.5;exitDx=0;exitDy=0;exitPerimeter=0;" parent="gGwlAg2NpKpwANiee2Lp-3" source="od6eeCdcjbZJOe7FV_tS-1" edge="1" target="ZI70vxyPbpq8DwKy1oIE-2">
          <mxGeometry width="50" height="50" relative="1" as="geometry">
            <mxPoint x="162" y="431.5" as="sourcePoint" />
            <mxPoint x="200" y="401.16666666666674" as="targetPoint" />
          </mxGeometry>
        </mxCell>
        <mxCell id="gGwlAg2NpKpwANiee2Lp-25" value="" style="shape=actor;whiteSpace=wrap;html=1;fontStyle=1" parent="1" vertex="1">
          <mxGeometry x="-490" y="500" width="70" height="79" as="geometry" />
        </mxCell>
        <mxCell id="gGwlAg2NpKpwANiee2Lp-26" value="" style="edgeStyle=orthogonalEdgeStyle;html=1;endArrow=block;elbow=vertical;startArrow=block;startFill=1;endFill=1;strokeColor=#545B64;rounded=0;exitX=0.5;exitY=1;exitDx=0;exitDy=0;entryX=0;entryY=0.5;entryDx=0;entryDy=0;entryPerimeter=0;" parent="1" source="gGwlAg2NpKpwANiee2Lp-25" target="gGwlAg2NpKpwANiee2Lp-14" edge="1">
          <mxGeometry width="100" relative="1" as="geometry">
            <mxPoint x="-70" y="510" as="sourcePoint" />
            <mxPoint x="30" y="510" as="targetPoint" />
          </mxGeometry>
        </mxCell>
        <mxCell id="gGwlAg2NpKpwANiee2Lp-27" value="" style="edgeStyle=orthogonalEdgeStyle;html=1;endArrow=block;elbow=vertical;startArrow=block;startFill=1;endFill=1;strokeColor=#545B64;rounded=0;exitX=0.5;exitY=0;exitDx=0;exitDy=0;" parent="1" source="gGwlAg2NpKpwANiee2Lp-25" target="gGwlAg2NpKpwANiee2Lp-9" edge="1">
          <mxGeometry width="100" relative="1" as="geometry">
            <mxPoint x="-20" y="560" as="sourcePoint" />
            <mxPoint x="-140" y="390" as="targetPoint" />
            <Array as="points">
              <mxPoint x="-455" y="374" />
            </Array>
          </mxGeometry>
        </mxCell>
        <mxCell id="gGwlAg2NpKpwANiee2Lp-53" value="" style="rounded=0;whiteSpace=wrap;html=1;" parent="1" vertex="1">
          <mxGeometry x="-940" y="150" width="120" height="60" as="geometry" />
        </mxCell>
        <mxCell id="gGwlAg2NpKpwANiee2Lp-54" value="Portfolio" style="text;html=1;align=center;verticalAlign=middle;whiteSpace=wrap;rounded=0;fontSize=18;" parent="1" vertex="1">
          <mxGeometry x="-910" y="165" width="60" height="30" as="geometry" />
        </mxCell>
        <mxCell id="od6eeCdcjbZJOe7FV_tS-2" value="" style="endArrow=classic;startArrow=classic;html=1;rounded=0;exitX=1;exitY=0.75;exitDx=0;exitDy=0;" parent="1" source="gGwlAg2NpKpwANiee2Lp-25" target="od6eeCdcjbZJOe7FV_tS-1" edge="1">
          <mxGeometry width="50" height="50" relative="1" as="geometry">
            <mxPoint x="-430" y="557" as="sourcePoint" />
            <mxPoint x="-180" y="558" as="targetPoint" />
          </mxGeometry>
        </mxCell>
      </root>
    </mxGraphModel>
  </diagram>
</mxfile>
